<?xml version="1.0"?><svg id="Layer_2" xmlns="http://www.w3.org/2000/svg" viewBox="0 0 148.5 68.52"><g id="Layer_1-2"><path d="M49.95,41.11h17.87c-3.17,15.64-17,27.41-33.57,27.41C15.33,68.52,0,53.18,0,34.26S15.33,0,34.25,0c16.57,0,30.4,11.77,33.57,27.41h-17.87c-2.64-6.05-8.68-10.28-15.7-10.28-9.46,0-17.13,7.67-17.13,17.13s7.67,17.13,17.13,17.13c7.02,0,13.06-4.23,15.7-10.28Z" style="fill:#fd4e19;"></path><path d="M148.5,34.26c0,18.92-15.33,34.26-34.25,34.26-16.58,0-30.4-11.77-33.57-27.41h17.87c2.63,6.05,8.67,10.28,15.7,10.28,9.46,0,17.13-7.67,17.13-17.13s-7.67-17.13-17.13-17.13c-7.03,0-13.07,4.23-15.7,10.28h-17.87C83.85,11.77,97.67,0,114.25,0c18.92,0,34.25,15.34,34.25,34.26Z" style="fill:#fff;"></path></g></svg>