<svg id="Layer_2" xmlns="http://www.w3.org/2000/svg" viewBox="0 0 24 24"><g id="Layer_1-2"><rect width="24" height="24" style="fill:none;"></rect><circle cx="13" cy="5" r="1" style="fill:var(--icon-accent,#fd4e19);"></circle><path d="M12,10H4c-1.1,0-2,.9-2,2v8c0,1.1.9,2,2,2h8c1.1,0,2-.9,2-2v-8c0-1.1-.9-2-2-2ZM13,20c0,.55-.45,1-1,1H4c-.55,0-1-.45-1-1v-8c0-.55.45-1,1-1h8c.55,0,1,.45,1,1v8Z" style="fill:var(--icon-ink,#350063);"></path><circle cx="19" cy="5" r="1" style="fill:var(--icon-accent,#fd4e19);"></circle><circle cx="19" cy="11" r="1" style="fill:var(--icon-accent,#fd4e19);"></circle><circle cx="16" cy="8" r="1" style="fill:var(--icon-accent,#fd4e19);"></circle><circle cx="5" cy="13" r="1" style="fill:var(--icon-accent,#fd4e19);"></circle><circle cx="11" cy="19" r="1" style="fill:var(--icon-accent,#fd4e19);"></circle><circle cx="8" cy="16" r="1" style="fill:var(--icon-accent,#fd4e19);"></circle><path d="M22,4v8c0,1.1-.9,2-2,2h-4.5c-.28,0-.5-.22-.5-.5s.22-.5.5-.5h4.5c.55,0,1-.45,1-1V4c0-.55-.45-1-1-1h-8c-.55,0-1,.45-1,1v4.5c0,.28-.22.5-.5.5s-.5-.22-.5-.5v-4.5c0-1.1.9-2,2-2h8c1.1,0,2,.9,2,2Z" style="fill:var(--icon-ink,#350063);"></path></g></svg>