<svg id="Layer_2" xmlns="http://www.w3.org/2000/svg" viewBox="0 0 24 24"><g id="Layer_1-2"><rect width="24" height="24" style="fill:none;"></rect><path d="M12,3c.11.09.24.21.34.3.43.39.98.88,1.71,1.08.24.06.5.1.77.1.47,0,.9-.09,1.29-.17.13-.03.27-.06.4-.08.05.13.1.28.13.39.18.56.41,1.27.95,1.81s1.24.77,1.81.95c.12.04.27.09.39.13-.02.13-.05.28-.08.4-.12.58-.28,1.31-.08,2.06.2.73.68,1.27,1.08,1.71.09.1.21.23.3.34-.09.11-.21.24-.3.34-.39.43-.88.98-1.08,1.71-.2.75-.05,1.47.08,2.06.02.12.06.27.08.4-.13.05-.28.1-.39.13-.56.18-1.27.41-1.81.95-.54.54-.77,1.24-.95,1.81-.04.12-.09.27-.13.39-.12-.02-.26-.05-.4-.08-.39-.08-.82-.17-1.29-.17-.27,0-.53.03-.77.1-.73.2-1.27.68-1.71,1.08-.1.09-.23.21-.34.3-.11-.09-.24-.21-.34-.3-.43-.39-.98-.88-1.71-1.08-.24-.06-.5-.1-.77-.1-.47,0-.9.09-1.29.17-.13.03-.27.06-.4.08-.05-.13-.1-.28-.13-.39-.18-.56-.41-1.27-.95-1.81-.54-.54-1.24-.77-1.81-.95-.12-.04-.27-.09-.39-.13.02-.13.05-.28.08-.4.12-.58.28-1.31.08-2.06-.2-.73-.68-1.27-1.08-1.71-.09-.1-.21-.23-.3-.34.09-.11.21-.24.3-.34.39-.43.88-.98,1.08-1.71.2-.75.05-1.47-.08-2.06-.02-.12-.06-.27-.08-.4.13-.05.28-.1.39-.13.56-.18,1.27-.41,1.81-.95s.77-1.24.95-1.81c.04-.12.09-.27.13-.39.12.02.26.05.4.08.39.08.82.17,1.29.17.27,0,.53-.03.77-.1.73-.2,1.27-.68,1.71-1.08.1-.09.23-.21.34-.3M12,2c-.84,0-1.52,1.22-2.3,1.43-.11.03-.23.04-.35.04-.57,0-1.24-.26-1.8-.26-.2,0-.39.03-.55.13-.72.41-.69,1.81-1.27,2.39s-1.98.55-2.39,1.27c-.41.71.31,1.9.09,2.71-.21.78-1.43,1.45-1.43,2.3s1.22,1.52,1.43,2.3c.22.81-.5,2-.09,2.7.41.72,1.81.69,2.39,1.27.58.58.55,1.98,1.27,2.39.16.09.35.13.55.13.56,0,1.24-.26,1.8-.26.12,0,.24.01.35.04.78.21,1.45,1.43,2.3,1.43s1.52-1.22,2.3-1.43c.11-.03.23-.04.35-.04.57,0,1.24.26,1.8.26.2,0,.39-.03.55-.13.72-.41.69-1.81,1.27-2.39s1.98-.55,2.39-1.27c.41-.71-.31-1.9-.09-2.71.21-.78,1.43-1.45,1.43-2.3s-1.22-1.52-1.43-2.3c-.22-.81.5-2,.09-2.7-.41-.72-1.81-.69-2.39-1.27s-.55-1.98-1.27-2.39c-.16-.09-.35-.13-.55-.13-.56,0-1.24.26-1.8.26-.12,0-.24,0-.35-.04-.78-.21-1.45-1.43-2.3-1.43h0Z" style="fill:var(--icon-ink,#350063);"></path><circle cx="12" cy="12" r="6" style="fill:var(--icon-accent,#fd4e19);"></circle><path d="M11,14.5c-.13,0-.26-.05-.35-.15l-2-2c-.2-.2-.2-.51,0-.71s.51-.2.71,0l1.65,1.65,3.65-3.65c.2-.2.51-.2.71,0s.2.51,0,.71l-4,4c-.1.1-.23.15-.35.15h-.02Z" style="fill:#fff;"></path></g></svg>